<svg width="29" height="33" viewBox="0 0 29 33" fill="none" xmlns="http://www.w3.org/2000/svg">
<path d="M26.8742 9.00384C26.8641 8.86952 26.7517 8.76562 26.6172 8.76562H21.9765V7.47656C21.9765 3.35388 18.6224 0 14.5 0C10.3775 0 7.0234 3.35388 7.0234 7.47656V8.76562H2.38278C2.2482 8.76562 2.13579 8.86952 2.12574 9.00384L0.321052 32.7226C0.315638 32.794 0.34013 32.8646 0.389114 32.9172C0.437841 32.9701 0.506419 33 0.578091 33H28.4218C28.4935 33 28.5621 32.9701 28.6108 32.9175C28.6595 32.8649 28.6843 32.7943 28.6789 32.7229L26.8742 9.00384ZM9.0859 7.47656C9.0859 4.49135 11.5145 2.0625 14.5 2.0625C17.4854 2.0625 19.914 4.49135 19.914 7.47656V8.76562H9.0859V7.47656ZM8.05465 15.9844C6.63282 15.9844 5.47653 14.8278 5.47653 13.4062C5.47653 12.3773 5.99215 11.4502 7.0234 11.0434V13.4062C7.0234 13.975 7.48618 14.4375 8.05465 14.4375C8.62313 14.4375 9.0859 13.975 9.0859 13.4062V11.0449C10.1172 11.4518 10.6328 12.3858 10.6328 13.4062C10.6328 14.8278 9.47649 15.9844 8.05465 15.9844ZM20.9453 15.9844C19.5234 15.9844 18.3672 14.8278 18.3672 13.4062C18.3672 12.3773 18.8828 11.4502 19.914 11.0434V13.4062C19.914 13.975 20.3768 14.4375 20.9453 14.4375C21.5138 14.4375 21.9765 13.975 21.9765 13.4062V11.0449C23.0078 11.4518 23.5234 12.3858 23.5234 13.4062C23.5234 14.8278 22.3671 15.9844 20.9453 15.9844Z" fill="white"/>
</svg>
