<svg width="22" height="22" viewBox="0 0 22 22" fill="none" xmlns="http://www.w3.org/2000/svg">
<g clip-path="url(#clip0)">
<path d="M10.2665 4.78381H21.2665C21.6715 4.78381 21.9998 4.45584 21.9998 4.05049C21.9998 3.64514 21.6715 3.31717 21.2665 3.31717H10.2665C9.86151 3.31717 9.5332 3.64514 9.5332 4.05049C9.5332 4.45584 9.86151 4.78381 10.2665 4.78381Z" fill="black"/>
<path d="M0.733322 4.7838H2.3042C2.632 6.0455 3.77051 6.98393 5.13326 6.98393C6.75079 6.98393 8.06671 5.66818 8.06671 4.05048C8.06671 2.43277 6.75079 1.11719 5.13326 1.11719C3.77051 1.11719 2.632 2.05545 2.3042 3.31715H0.733322C0.328308 3.31715 0 3.64513 0 4.05048C0 4.45583 0.328308 4.7838 0.733322 4.7838ZM5.13326 2.58383C5.94228 2.58383 6.60007 3.24196 6.60007 4.05048C6.60007 4.85899 5.94228 5.51712 5.13326 5.51712C4.3244 5.51712 3.66661 4.85899 3.66661 4.05048C3.66661 3.24196 4.3244 2.58383 5.13326 2.58383Z" fill="black"/>
<path d="M11.7333 17.2505H0.733322C0.328308 17.2505 0 17.5786 0 17.9839C0 18.3893 0.328308 18.7173 0.733322 18.7173H11.7333C12.1383 18.7173 12.4666 18.3893 12.4666 17.9839C12.4666 17.5786 12.1383 17.2505 11.7333 17.2505Z" fill="black"/>
<path d="M21.2667 17.2504H19.6959C19.3679 15.9887 18.2294 15.0505 16.8668 15.0505C15.2493 15.0505 13.9333 16.3661 13.9333 17.9839C13.9333 19.6016 15.2493 20.9172 16.8668 20.9172C18.2296 20.9172 19.3681 19.979 19.6959 18.7173H21.2667C21.6718 18.7173 22.0001 18.3893 22.0001 17.9839C22.0001 17.5786 21.6718 17.2504 21.2667 17.2504ZM16.8668 19.4506C16.0578 19.4506 15.4 18.7923 15.4 17.9839C15.4 17.1754 16.0578 16.5171 16.8668 16.5171C17.6757 16.5171 18.3334 17.1754 18.3334 17.9839C18.3334 18.7923 17.6757 19.4506 16.8668 19.4506Z" fill="black"/>
<path d="M21.2666 10.6505H15.3998C14.995 10.6505 14.6665 10.9785 14.6665 11.3839C14.6665 11.7892 14.995 12.1172 15.3998 12.1172H21.2666C21.6716 12.1172 21.9999 11.7892 21.9999 11.3839C21.9999 10.9785 21.6716 10.6505 21.2666 10.6505Z" fill="black"/>
<path d="M0.733322 12.1172H8.06671C8.47173 12.1172 8.80003 11.7892 8.80003 11.3839C8.80003 10.9785 8.47173 10.6505 8.06671 10.6505H0.733322C0.328308 10.6505 0 10.9785 0 11.3839C0 11.7892 0.328308 12.1172 0.733322 12.1172Z" fill="black"/>
<path d="M10.2668 14.3172C8.64925 14.3172 7.3335 13.0016 7.3335 11.3839C7.3335 9.76617 8.64925 8.45059 10.2668 8.45059C11.8842 8.45059 13.2001 9.76617 13.2001 11.3839C13.2001 13.0016 11.8842 14.3172 10.2668 14.3172ZM10.2668 9.91724C9.45793 9.91724 8.80014 10.5754 8.80014 11.3839C8.80014 12.1924 9.45793 12.8505 10.2668 12.8505C11.0756 12.8505 11.7334 12.1924 11.7334 11.3839C11.7334 10.5754 11.0756 9.91724 10.2668 9.91724Z" fill="black"/>
</g>
<defs>
<clipPath id="clip0">
<rect width="22" height="22" fill="white"/>
</clipPath>
</defs>
</svg>
