<svg width="58" height="64" viewBox="0 0 58 64" fill="none" xmlns="http://www.w3.org/2000/svg">
<path d="M25.6875 56.9475H49.8302" stroke="black" stroke-width="0.705597" stroke-miterlimit="22.9256" stroke-linecap="round" stroke-linejoin="round"/>
<path d="M35.8101 63.3428H39.7073" stroke="black" stroke-width="0.705597" stroke-miterlimit="22.9256" stroke-linecap="round" stroke-linejoin="round"/>
<path d="M28.1675 58.5464H47.3499" stroke="black" stroke-width="0.705597" stroke-miterlimit="22.9256" stroke-linecap="round" stroke-linejoin="round"/>
<path d="M30.7739 60.1452H44.7432" stroke="black" stroke-width="0.705597" stroke-miterlimit="22.9256" stroke-linecap="round" stroke-linejoin="round"/>
<path d="M33.2031 61.744H42.3135" stroke="black" stroke-width="0.705597" stroke-miterlimit="22.9256" stroke-linecap="round" stroke-linejoin="round"/>
<path fill-rule="evenodd" clip-rule="evenodd" d="M35.5778 5.76685H38.2407L38.1814 3.95339C38.167 3.51083 37.9722 3.25883 37.892 2.83498C37.7881 2.28405 37.6755 1.71767 37.7616 1.13431C38.0305 -0.686889 40.9319 -0.131528 40.9239 1.50341C40.9184 2.59044 40.3981 3.48576 39.5174 4.18471C39.4346 5.01731 39.6957 5.53521 40.2702 5.76685H41.8623C41.6676 9.06838 42.1905 11.7854 42.5472 14.6377C40.1548 17.3448 39.9537 21.3893 40.1429 25.6744L37.7765 22.18C38.1897 24.5073 38.406 27.1414 38.518 29.9381C40.6406 44.0184 40.4501 51.0092 54.7855 52.6012C53.7736 52.3838 53.0272 51.6326 53.0272 50.7395C53.0272 49.6761 54.0847 48.8141 55.3891 48.8141C56.6936 48.8141 57.7511 49.6761 57.7511 50.7395C57.7511 51.8028 56.6936 52.6649 55.3891 52.6649C55.3147 52.6649 55.2408 52.662 55.1682 52.6564C39.218 52.0788 33.6392 40.6524 34.4263 29.057C34.5734 26.8867 34.7207 24.7163 34.868 22.5461C35.243 20.2255 34.9744 18.0748 33.1144 16.2096C30.2666 21.1139 32.8054 28.7649 33.8207 33.5474C31.8114 27.6598 27.816 19.8175 32.8901 14.3285C33.508 13.6601 34.042 12.9309 34.4741 12.1297C35.3255 10.5484 35.7299 7.47763 35.5778 5.76681V5.76685ZM36.7857 18.3152C37.7564 16.6228 38.947 14.9927 40.2694 13.675C40.28 11.958 40.17 10.3987 40.122 8.75856C38.7672 10.6587 37.0295 12.3949 34.973 14.0493C34.8036 14.1854 34.6425 14.3265 34.4894 14.4718C35.4663 15.423 36.2139 16.732 36.7857 18.3152Z" fill="black"/>
<path d="M3.01251 38.5869C4.21863 44.2312 3.09113 48.9655 1.19043 53.3987" stroke="black" stroke-width="0.705597" stroke-miterlimit="22.9256" stroke-linecap="round" stroke-linejoin="round"/>
<path d="M7.78955 34.1516C6.19979 40.4816 5.77428 46.7453 6.27672 52.9655" stroke="black" stroke-width="0.705597" stroke-miterlimit="22.9256" stroke-linecap="round" stroke-linejoin="round"/>
<path d="M1 40.4946C3.48884 42.0022 6.11992 43.3124 8.94628 44.3523" stroke="black" stroke-width="0.705597" stroke-miterlimit="22.9256" stroke-linecap="round" stroke-linejoin="round"/>
<path d="M8.35724 49.0043C9.25384 48.744 10.0435 48.3824 10.6851 47.8797C11.1167 47.5418 11.2256 47.5397 10.8085 47.1818C9.52852 46.0848 7.7947 47.0837 8.10922 48.5636C8.50494 50.4253 10.103 50.1611 11.228 49.1441" stroke="black" stroke-width="0.705597" stroke-miterlimit="22.9256" stroke-linecap="round" stroke-linejoin="round"/>
<path d="M12.2361 45.9922C12.2846 49.2951 11.9933 52.2201 11.2998 54.6978" stroke="black" stroke-width="0.705597" stroke-miterlimit="22.9256" stroke-linecap="round" stroke-linejoin="round"/>
<path d="M12.2406 47.0499C13.5388 46.5737 14.8315 46.9733 14.8429 48.1376C14.8479 49.4407 13.118 49.5616 12.1865 48.8601" stroke="black" stroke-width="0.705597" stroke-miterlimit="22.9256" stroke-linecap="round" stroke-linejoin="round"/>
<path d="M15.7669 47.1163C17.1515 50.6729 18.2145 50.0927 18.943 45.105C18.8206 48.722 18.6983 52.3391 18.576 55.9562C18.1511 52.4688 15.9472 51.0331 12.7554 50.7368C15.9263 50.4138 18.9986 49.7324 21.9672 48.612C22.0231 49.2926 22.2231 49.812 22.5492 50.1902C24.0207 48.0006 25.0388 45.2144 25.6241 42.4231C25.6493 44.6373 25.6747 46.8517 25.7 49.0659C26.7412 46.8979 27.6747 44.6598 28.547 42.3818C27.8185 44.9749 27.8922 47.5801 28.952 50.2005" stroke="black" stroke-width="0.705597" stroke-miterlimit="22.9256" stroke-linecap="round" stroke-linejoin="round"/>
</svg>
