<svg width="79" height="93" viewBox="0 0 79 93" fill="none" xmlns="http://www.w3.org/2000/svg">
<path d="M34.9306 83.1929H68.1128" stroke="black" stroke-width="0.705597" stroke-miterlimit="22.9256" stroke-linecap="round" stroke-linejoin="round"/>
<path d="M48.8435 92.5179H54.1999" stroke="black" stroke-width="0.705597" stroke-miterlimit="22.9256" stroke-linecap="round" stroke-linejoin="round"/>
<path d="M38.3393 85.524H64.704" stroke="black" stroke-width="0.705597" stroke-miterlimit="22.9256" stroke-linecap="round" stroke-linejoin="round"/>
<path d="M41.9219 87.8555H61.1216" stroke="black" stroke-width="0.705597" stroke-miterlimit="22.9256" stroke-linecap="round" stroke-linejoin="round"/>
<path d="M45.2609 90.1867H57.7824" stroke="black" stroke-width="0.705597" stroke-miterlimit="22.9256" stroke-linecap="round" stroke-linejoin="round"/>
<path fill-rule="evenodd" clip-rule="evenodd" d="M48.5246 8.5635H52.1845L52.103 5.91919C52.0832 5.27387 51.8154 4.90642 51.7053 4.28838C51.5624 3.48504 51.4077 2.65916 51.526 1.80854C51.8956 -0.84705 55.8834 -0.0372464 55.8723 2.34674C55.8648 3.9318 55.1497 5.23731 53.9392 6.25649C53.8254 7.47056 54.1842 8.22574 54.9739 8.5635H57.1621C56.8945 13.3776 57.6133 17.3394 58.1035 21.4985C54.8153 25.4459 54.5389 31.3434 54.799 37.5918L51.5466 32.4964C52.1144 35.89 52.4117 39.7308 52.5656 43.8089C55.483 64.3401 55.2211 74.5339 74.924 76.8552C73.5333 76.5382 72.5074 75.4429 72.5074 74.1406C72.5074 72.5899 73.9608 71.333 75.7536 71.333C77.5466 71.333 79 72.5899 79 74.1406C79 75.6911 77.5466 76.948 75.7536 76.948C75.6513 76.948 75.5498 76.9438 75.45 76.9356C53.5277 76.0934 45.8601 59.432 46.9419 42.5242C47.1442 39.3594 47.3466 36.1947 47.5491 33.0303C48.0644 29.6464 47.6952 26.5104 45.1388 23.7906C41.2248 30.9419 44.7141 42.0983 46.1095 49.0718C43.3479 40.4868 37.8566 29.0515 44.8306 21.0477C45.6798 20.073 46.4137 19.0098 47.0076 17.8415C48.1779 15.5358 48.7336 11.0581 48.5246 8.56344V8.5635ZM50.1847 26.8609C51.5189 24.3931 53.1553 22.0163 54.9728 20.0948C54.9874 17.5912 54.8362 15.3175 54.7701 12.9259C52.9081 15.6965 50.5198 18.2282 47.6933 20.6406C47.4604 20.8391 47.2391 21.0449 47.0286 21.2567C48.3714 22.6436 49.3988 24.5523 50.1847 26.8609Z" fill="black"/>
<path d="M3.76596 56.42C5.42367 64.6503 3.87401 71.5538 1.26166 78.018" stroke="black" stroke-width="0.705597" stroke-miterlimit="22.9256" stroke-linecap="round" stroke-linejoin="round"/>
<path d="M10.3318 49.9528C8.14683 59.1829 7.562 68.3164 8.25257 77.3863" stroke="black" stroke-width="0.705597" stroke-miterlimit="22.9256" stroke-linecap="round" stroke-linejoin="round"/>
<path d="M1 59.202C4.4207 61.4003 8.03692 63.3108 11.9215 64.8271" stroke="black" stroke-width="0.705597" stroke-miterlimit="22.9256" stroke-linecap="round" stroke-linejoin="round"/>
<path d="M11.112 71.6104C12.3443 71.2308 13.4296 70.7034 14.3114 69.9705C14.9046 69.4778 15.0543 69.4747 14.481 68.9528C12.7218 67.3532 10.3388 68.8098 10.7711 70.9678C11.3149 73.6824 13.5114 73.2971 15.0576 71.8142" stroke="black" stroke-width="0.705597" stroke-miterlimit="22.9256" stroke-linecap="round" stroke-linejoin="round"/>
<path d="M16.4433 67.2181C16.5099 72.0343 16.1096 76.2993 15.1564 79.9123" stroke="black" stroke-width="0.705597" stroke-miterlimit="22.9256" stroke-linecap="round" stroke-linejoin="round"/>
<path d="M16.4493 68.7606C18.2335 68.0662 20.0103 68.649 20.026 70.3466C20.0329 72.2468 17.6553 72.4231 16.375 71.4002" stroke="black" stroke-width="0.705597" stroke-miterlimit="22.9256" stroke-linecap="round" stroke-linejoin="round"/>
<path d="M21.2956 68.8574C23.1987 74.0434 24.6596 73.1975 25.6608 65.9246C25.4927 71.1988 25.3246 76.473 25.1565 81.7472C24.5725 76.6622 21.5434 74.5687 17.1565 74.1367C21.5146 73.6656 25.7373 72.6721 29.8174 71.0384C29.8943 72.0308 30.1691 72.7882 30.6173 73.3396C32.6398 70.1468 34.0391 66.084 34.8435 62.014C34.8782 65.2426 34.9131 68.4715 34.9478 71.7002C36.3788 68.5389 37.6619 65.2754 38.8608 61.9538C37.8596 65.7348 37.9609 69.5337 39.4174 73.3546" stroke="black" stroke-width="0.705597" stroke-miterlimit="22.9256" stroke-linecap="round" stroke-linejoin="round"/>
</svg>
