<svg width="156" height="184" viewBox="0 0 156 184" fill="none" xmlns="http://www.w3.org/2000/svg">
<path d="M68.4261 165.014H134.365" stroke="white" stroke-width="0.705597" stroke-miterlimit="22.9256" stroke-linecap="round" stroke-linejoin="round"/>
<path d="M96.0736 183.543H106.718" stroke="white" stroke-width="0.705597" stroke-miterlimit="22.9256" stroke-linecap="round" stroke-linejoin="round"/>
<path d="M75.1999 169.645H127.591" stroke="white" stroke-width="0.705597" stroke-miterlimit="22.9256" stroke-linecap="round" stroke-linejoin="round"/>
<path d="M82.3192 174.277H120.472" stroke="white" stroke-width="0.705597" stroke-miterlimit="22.9256" stroke-linecap="round" stroke-linejoin="round"/>
<path d="M88.9543 178.91H113.837" stroke="white" stroke-width="0.705597" stroke-miterlimit="22.9256" stroke-linecap="round" stroke-linejoin="round"/>
<path fill-rule="evenodd" clip-rule="evenodd" d="M95.4399 16.7101H102.713L102.551 11.4554C102.511 10.173 101.979 9.4428 101.761 8.21465C101.477 6.61829 101.169 4.97712 101.404 3.28678C102.139 -1.99033 110.063 -0.381115 110.041 4.35628C110.026 7.50607 108.605 10.1004 106.2 12.1256C105.973 14.5382 106.687 16.0389 108.256 16.7101H112.604C112.072 26.2766 113.501 34.1493 114.475 42.4143C107.941 50.2584 107.391 61.9777 107.908 74.3944L101.445 64.269C102.574 71.0126 103.164 78.645 103.47 86.7487C109.267 127.548 108.747 147.805 147.9 152.418C145.137 151.788 143.098 149.611 143.098 147.023C143.098 143.942 145.986 141.444 149.549 141.444C153.112 141.444 156 143.942 156 147.023C156 150.104 153.112 152.602 149.549 152.602C149.346 152.602 149.144 152.594 148.946 152.577C105.382 150.904 90.1451 117.795 92.2947 84.1958C92.6967 77.907 93.099 71.6181 93.5013 65.3298C94.5254 58.6055 93.7918 52.3736 88.7118 46.969C80.9339 61.1799 87.8678 83.3495 90.6407 97.2071C85.1529 80.1472 74.2407 57.4233 88.0992 41.5184C89.7868 39.5815 91.2452 37.4688 92.4253 35.1471C94.7509 30.5652 95.8552 21.6672 95.4399 16.7099V16.7101ZM98.7388 53.0702C101.39 48.1663 104.642 43.4431 108.254 39.6247C108.283 34.6497 107.982 30.1314 107.851 25.3789C104.151 30.8846 99.4047 35.9155 93.7879 40.7093C93.3252 41.1038 92.8854 41.5127 92.4671 41.9337C95.1354 44.6896 97.1771 48.4827 98.7388 53.0702Z" fill="white"/>
<path d="M6.49652 111.81C9.79069 128.165 6.71124 141.883 1.52002 154.729" stroke="white" stroke-width="0.705597" stroke-miterlimit="22.9256" stroke-linecap="round" stroke-linejoin="round"/>
<path d="M19.5439 98.959C15.2019 117.301 14.0398 135.45 15.4121 153.474" stroke="white" stroke-width="0.705597" stroke-miterlimit="22.9256" stroke-linecap="round" stroke-linejoin="round"/>
<path d="M1 117.338C7.79754 121.706 14.9836 125.503 22.703 128.516" stroke="white" stroke-width="0.705597" stroke-miterlimit="22.9256" stroke-linecap="round" stroke-linejoin="round"/>
<path d="M21.0942 141.995C23.5429 141.241 25.6998 140.193 27.452 138.737C28.6309 137.758 28.9282 137.752 27.789 136.715C24.2931 133.536 19.5577 136.431 20.4167 140.719C21.4975 146.113 25.8622 145.347 28.9348 142.4" stroke="white" stroke-width="0.705597" stroke-miterlimit="22.9256" stroke-linecap="round" stroke-linejoin="round"/>
<path d="M31.6885 133.268C31.8209 142.838 31.0255 151.314 29.1313 158.494" stroke="white" stroke-width="0.705597" stroke-miterlimit="22.9256" stroke-linecap="round" stroke-linejoin="round"/>
<path d="M31.7006 136.333C35.2463 134.953 38.777 136.111 38.8082 139.484C38.8219 143.26 34.0972 143.61 31.553 141.578" stroke="white" stroke-width="0.705597" stroke-miterlimit="22.9256" stroke-linecap="round" stroke-linejoin="round"/>
<path d="M41.3309 136.525C45.1126 146.831 48.0158 145.149 50.0054 130.697C49.6713 141.178 49.3372 151.658 49.0031 162.139C47.8428 152.034 41.8233 147.874 33.1057 147.016C41.7662 146.08 50.1573 144.105 58.2652 140.859C58.418 142.831 58.9641 144.336 59.8548 145.432C63.8739 139.087 66.6545 131.014 68.253 122.926C68.322 129.342 68.3913 135.758 68.4602 142.174C71.304 135.892 73.8536 129.407 76.2362 122.807C74.2466 130.32 74.4478 137.869 77.3423 145.462" stroke="white" stroke-width="0.705597" stroke-miterlimit="22.9256" stroke-linecap="round" stroke-linejoin="round"/>
</svg>
