<svg width="21" height="30" viewBox="0 0 21 30" fill="none" xmlns="http://www.w3.org/2000/svg">
<path d="M10.7458 0.922853C5.35533 0.922853 0.969727 5.30846 0.969727 10.699C0.969727 17.4743 10.7555 29.0478 10.7555 29.0478C10.7555 29.0478 20.522 17.1411 20.522 10.699C20.522 5.30846 16.1365 0.922853 10.7458 0.922853ZM13.6955 13.5614C12.8822 14.3746 11.8141 14.7812 10.7458 14.7812C9.67776 14.7812 8.60934 14.3746 7.79636 13.5614C6.16986 11.9351 6.16986 9.28877 7.79636 7.66228C8.58394 6.87435 9.63159 6.44039 10.7458 6.44039C11.8601 6.44039 12.9076 6.87452 13.6955 7.66228C15.322 9.28877 15.322 11.9351 13.6955 13.5614Z" fill="#C5A995"/>
</svg>
