<svg width="1181" height="156" viewBox="0 0 1181 156" fill="none" xmlns="http://www.w3.org/2000/svg">
<path d="M1 78C40.3333 -24.6667 79.6667 -24.6667 119 78C158.333 180.667 197.667 180.667 237 78C276.333 -24.6667 315.667 -24.6667 355 78C394.333 180.667 433.667 180.667 473 78C512.333 -24.6667 551.667 -24.6667 591 78C630.333 180.667 669.667 180.667 709 78C748.333 -24.6667 787.667 -24.6667 827 78C866.333 180.667 905.667 180.667 945 78C984.333 -24.6667 1023.67 -24.6667 1063 78C1102.33 180.667 1141.67 180.667 1181 78" stroke="#AE97A2" stroke-width="2"/>
</svg>
