<svg width="24" height="24" viewBox="0 0 24 24" fill="none" xmlns="http://www.w3.org/2000/svg">
<path d="M20.9829 3.01809C19.0366 1.07184 16.449 0 13.6966 0C10.9443 0 8.35663 1.07184 6.41043 3.01809C4.46423 4.9643 3.39234 7.55194 3.39234 10.3043C3.39234 12.8206 4.28877 15.199 5.92977 17.0757L0.207133 22.7984C-0.0677422 23.0733 -0.0677422 23.5189 0.207133 23.7938C0.34457 23.9312 0.524711 24 0.704805 24C0.884898 24 1.06509 23.9313 1.20248 23.7938L6.92516 18.0712C8.8019 19.7121 11.1802 20.6086 13.6966 20.6086C16.449 20.6086 19.0366 19.5368 20.9828 17.5905C22.929 15.6443 24.0009 13.0567 24.0009 10.3043C24.0009 7.55194 22.9291 4.9643 20.9829 3.01809ZM19.9874 16.5951C16.5187 20.0639 10.8747 20.0639 7.40587 16.5951C3.93712 13.1264 3.93712 7.48228 7.40587 4.01353C9.14043 2.27897 11.4182 1.41197 13.6967 1.41197C15.9746 1.41197 18.2533 2.27939 19.9875 4.01353C23.4562 7.48223 23.4562 13.1263 19.9874 16.5951Z" fill="black"/>
</svg>
