<svg width="21" height="21" viewBox="0 0 21 21" fill="none" xmlns="http://www.w3.org/2000/svg">
<g clip-path="url(#clip0)">
<path d="M20.2606 12.1564C20.8871 6.88277 19.9596 3.5534 18.2866 2.04752L18.2875 2.04665C15.5873 -0.524978 6.46801 -0.905604 3.23751 2.16215C1.78676 3.66277 1.27576 5.86515 1.21976 8.59165C1.16376 11.319 1.09726 16.4281 5.85813 17.8141H5.86251L5.85813 19.9308C5.85813 19.9308 5.82576 20.7883 6.37351 20.9606C7.00001 21.1636 7.28351 20.7655 9.23213 18.438C12.4906 18.7206 14.9931 18.0731 15.2775 17.9786C15.9355 17.7581 19.6586 17.2655 20.2606 12.1564ZM9.55326 16.9488C9.55326 16.9488 7.49088 19.5204 6.84951 20.188C6.63951 20.405 6.40938 20.3849 6.41288 19.9544C6.41288 19.6718 6.42863 16.4404 6.42863 16.4404C2.39226 15.2836 2.63026 10.9331 2.67401 8.65727C2.71776 6.38052 3.13426 4.5159 4.36276 3.26027C7.19688 0.602897 15.1918 1.19702 17.2288 3.11152C19.719 5.31915 18.8326 11.5561 18.8379 11.7688C18.326 16.0335 15.309 16.3039 14.7543 16.4885C14.5171 16.5673 12.3165 17.1334 9.55326 16.9488Z" fill="#C5A995"/>
<path d="M10.6942 3.75989C10.3574 3.75989 10.3574 4.28489 10.6942 4.28926C13.3079 4.30939 15.4604 6.13114 15.484 9.47276C15.484 9.82539 16.0002 9.82101 15.9959 9.46839H15.995C15.967 5.86776 13.6167 3.78001 10.6942 3.75989Z" fill="#C5A995"/>
<path d="M14.1321 8.91891C14.1243 9.26716 14.6396 9.28378 14.644 8.93116C14.6869 6.94578 13.4628 5.31041 11.1624 5.13803C10.8255 5.11353 10.7905 5.64291 11.1265 5.66741C13.1215 5.81878 14.1724 7.18028 14.1321 8.91891Z" fill="#C5A995"/>
<path d="M13.5809 11.1772C13.1486 10.927 12.7085 11.0827 12.5265 11.3286L12.1459 11.8212C11.9525 12.0715 11.5911 12.0382 11.5911 12.0382C8.95388 11.3408 8.24863 8.5811 8.24863 8.5811C8.24863 8.5811 8.21626 8.20747 8.45776 8.00709L8.93376 7.61334C9.17176 7.42434 9.32226 6.96934 9.07988 6.52222C8.43238 5.35234 7.99751 4.94897 7.77613 4.63922C7.54338 4.34784 7.19338 4.28222 6.82938 4.47909H6.8215C6.06463 4.92184 5.236 5.75047 5.50113 6.60359C5.9535 7.50309 6.78475 10.3705 9.43426 12.537C10.6794 13.5616 12.6499 14.6116 13.4864 14.854L13.4943 14.8662C14.3185 15.141 15.12 14.28 15.5479 13.5003V13.4942C15.7378 13.1171 15.6748 12.7601 15.3974 12.5265C14.9056 12.047 14.1636 11.5176 13.5809 11.1772Z" fill="#C5A995"/>
<path d="M11.5229 7.09103C12.3637 7.14003 12.7715 7.57928 12.8152 8.48141C12.831 8.83404 13.3429 8.80954 13.3271 8.45691C13.2711 7.27916 12.6569 6.62291 11.5509 6.56166C11.214 6.54153 11.1825 7.07091 11.5229 7.09103Z" fill="#C5A995"/>
</g>
<defs>
<clipPath id="clip0">
<rect width="21" height="21" fill="white"/>
</clipPath>
</defs>
</svg>
