<svg width="24" height="25" viewBox="0 0 24 25" fill="none" xmlns="http://www.w3.org/2000/svg">
<g clip-path="url(#clip0)">
<path d="M23.7861 18.0908C23.7216 17.9782 23.3226 17.0751 21.4024 15.2187C19.3923 13.2748 19.6623 13.5904 22.0835 10.2292C23.5581 8.1822 24.1476 6.93211 23.9631 6.39769C23.7876 5.88828 22.703 6.02267 22.703 6.02267L19.0968 6.04454C19.0968 6.04454 18.8297 6.00704 18.6302 6.13049C18.4367 6.25237 18.3122 6.53364 18.3122 6.53364C18.3122 6.53364 17.7407 8.11813 16.9786 9.46511C15.372 12.3075 14.7284 12.4575 14.4659 12.2809C13.8554 11.87 14.0084 10.6277 14.0084 9.74638C14.0084 6.99149 14.4089 5.84297 13.2268 5.54607C12.8338 5.44762 12.5458 5.38199 11.5422 5.37106C10.2551 5.35699 9.16451 5.37574 8.54797 5.68983C8.13694 5.89922 7.82042 6.36644 8.01393 6.39301C8.25245 6.42582 8.79249 6.54458 9.07901 6.95086C9.44954 7.47434 9.43604 8.65255 9.43604 8.65255C9.43604 8.65255 9.64905 11.895 8.9395 12.2981C8.45196 12.5747 7.78441 12.0106 6.35181 9.43073C5.61825 8.11032 5.06321 6.64928 5.06321 6.64928C5.06321 6.64928 4.9567 6.37738 4.76619 6.23206C4.53517 6.05548 4.21115 5.99923 4.21115 5.99923L0.781893 6.0211C0.781893 6.0211 0.267355 6.03673 0.0783407 6.26956C-0.0896718 6.47739 0.0648397 6.90554 0.0648397 6.90554C0.0648397 6.90554 2.75004 13.4482 5.78926 16.7469C8.57797 19.7706 11.7432 19.5721 11.7432 19.5721H13.1773C13.1773 19.5721 13.6108 19.5221 13.8314 19.2737C14.0354 19.0455 14.0279 18.6174 14.0279 18.6174C14.0279 18.6174 13.9994 16.6125 14.8934 16.3172C15.774 16.0265 16.9051 18.2548 18.1037 19.1127C19.0097 19.7612 19.6983 19.619 19.6983 19.619L22.904 19.5721C22.904 19.5721 24.5812 19.4643 23.7861 18.0908Z" fill="#C4C4C4"/>
</g>
<defs>
<clipPath id="clip0">
<rect width="24" height="25" fill="white"/>
</clipPath>
</defs>
</svg>
