<svg width="1160" height="154" viewBox="0 0 1160 154" fill="none" xmlns="http://www.w3.org/2000/svg">
<path d="M1159.05 77.2169C1158.57 78.4074 1158.09 79.6061 1157.6 80.8207C1138.76 128.089 1120.12 151.628 1101.71 151.08C1083.26 150.53 1064.61 125.857 1045.74 76.7L1045.73 76.6712C1023.08 21.087 1002.95 -2.48093 983.342 0.206751C963.86 2.87554 945.384 31.6586 925.789 80.8199C914.346 109.531 902.935 129.51 891.556 140.677C884.395 147.705 877.289 151.183 870.243 151.089C863.194 150.995 856.083 147.324 848.913 140.054C837.288 128.269 825.628 107.179 813.932 76.7L813.921 76.6712C791.266 21.087 771.141 -2.48169 751.526 0.20524C732.043 2.87403 713.567 31.6563 693.977 80.8199C675.133 128.089 656.501 151.627 638.083 151.079C619.636 150.53 600.983 125.856 582.12 76.6992L582.109 76.6705C559.454 21.0862 539.33 -2.48169 519.717 0.205995C500.235 2.87479 481.759 31.6578 462.165 80.8192C450.722 109.53 439.31 129.509 427.932 140.676C421.107 147.374 414.334 150.847 407.614 151.078H407.611C407.401 151.084 407.19 151.089 406.979 151.09H406.949H406.947H406.915C406.831 151.09 406.746 151.089 406.661 151.088H406.63H406.619C406.513 151.087 406.406 151.084 406.299 151.081C399.357 150.879 392.357 147.209 385.298 140.053C373.674 128.269 362.013 107.178 350.318 76.6992L350.306 76.6705C329.063 24.5501 310.045 0.580125 291.585 0.00948296C291.281 -0.000342659 290.978 -0.00336593 290.673 -0.000342659H290.671C289.746 0.00872715 288.823 0.0775065 287.901 0.203728C278.002 1.55966 268.362 9.66278 258.704 23.7512V23.7663C249.359 37.4035 239.995 56.6451 230.363 80.8192C211.519 128.088 192.887 151.626 174.469 151.078C156.023 150.529 137.369 125.855 118.506 76.6985L118.495 76.6697C95.84 21.0854 75.7163 -2.48245 56.1036 0.20524C37.1031 2.80827 19.0588 30.2535 0.00158882 77.2154V84.9981C0.419556 83.9732 0.836767 82.9385 1.25398 81.8909C20.4449 33.7401 38.2293 5.59195 56.4914 3.09019C74.6196 0.606579 93.7237 23.6235 115.787 77.7513C135.112 128.109 154.648 153.399 174.39 153.987C194.162 154.576 213.72 130.421 233.067 81.8909C252.253 33.7386 270.038 5.59044 288.3 3.08868C288.867 3.01083 289.434 2.95868 290.003 2.93072C290.284 2.91711 290.565 2.90955 290.847 2.90804H290.857C291.139 2.90729 291.42 2.91182 291.702 2.92316C308.82 3.6049 326.906 27.0065 347.589 77.7498C359.427 108.598 371.304 130.018 383.215 142.093C390.827 149.811 398.499 153.769 406.228 153.988C406.348 153.991 406.467 153.994 406.586 153.995H406.596H406.629L406.887 153.997H406.92H406.952H406.983L407.276 153.994L407.308 153.993H407.324L407.341 153.992L407.373 153.991L407.664 153.984L407.692 153.983H407.697L407.729 153.982L408.048 153.969H408.052H408.06L408.085 153.969L408.405 153.951H408.407L408.428 153.95L408.44 153.949L408.472 153.947L408.666 153.933V153.932C415.817 153.408 422.921 149.674 429.977 142.751C441.643 131.302 453.275 110.989 464.872 81.8902C484.063 33.7393 501.848 5.59119 520.11 3.08944C538.238 0.605823 557.342 23.6227 579.405 77.7506C598.73 128.108 618.266 153.398 638.008 153.986C657.78 154.575 677.338 130.42 696.685 81.8902C715.872 33.7378 733.657 5.58968 751.919 3.08793C770.049 0.605067 789.154 23.6227 811.217 77.7498C823.055 108.598 834.932 130.018 846.843 142.093C854.573 149.93 862.364 153.89 870.215 153.995C878.069 154.1 885.865 150.345 893.603 142.751C905.269 131.302 916.901 110.989 928.498 81.8902C947.689 33.7393 965.473 5.59119 983.735 3.08944C1001.86 0.605823 1020.97 23.6227 1043.03 77.7506C1062.36 128.108 1081.89 153.398 1101.63 153.986C1120.98 154.562 1140.12 131.448 1159.06 84.9936V77.2139L1159.05 77.2169Z" fill="#AE97A2"/>
</svg>
